<svg width="64" height="64" viewBox="0 0 64 64" fill="none" xmlns="http://www.w3.org/2000/svg">
<rect width="64" height="64" rx="10" fill="white"/>
<path d="M16.6914 24.7832L9.73047 46H4.12305L13.6328 20.4062H17.2012L16.6914 24.7832ZM22.4746 46L15.4961 24.7832L14.9336 20.4062H18.5371L28.0996 46H22.4746ZM22.1582 36.4727V40.6035H8.64062V36.4727H22.1582ZM32.8809 20.4062H37.3457L43.9199 39.1973L50.4941 20.4062H54.959L45.7129 46H42.127L32.8809 20.4062ZM30.4727 20.4062H34.9199L35.7285 38.7227V46H30.4727V20.4062ZM52.9199 20.4062H57.3848V46H52.1113V38.7227L52.9199 20.4062Z" fill="black"/>
</svg>
